<?xml version="1.0" encoding="UTF-8"?>
<svg id="_" xmlns="http://www.w3.org/2000/svg" version="1.1" xmlns:xlink="http://www.w3.org/1999/xlink" viewBox="0 0 5 5">
  <!-- Generator: Adobe Illustrator 29.1.0, SVG Export Plug-In . SVG Version: 2.1.0 Build 142)  -->
  <defs>
    <style>
      .st0 {
        fill: url(#Degradado_sin_nombre_100062);
      }

      .st1 {
        fill: url(#Degradado_sin_nombre_100099);
      }

      .st2 {
        fill: url(#Degradado_sin_nombre_100085);
      }

      .st3 {
        fill: url(#Degradado_sin_nombre_100080);
      }

      .st4 {
        fill: url(#Degradado_sin_nombre_100019);
      }

      .st5 {
        fill: url(#Degradado_sin_nombre_100029);
      }

      .st6 {
        fill: url(#Degradado_sin_nombre_100068);
      }

      .st7 {
        fill: url(#Degradado_sin_nombre_100051);
      }

      .st8 {
        fill: url(#Degradado_sin_nombre_1000103);
      }

      .st9 {
        fill: url(#Degradado_sin_nombre_100021);
      }

      .st10 {
        fill: url(#Degradado_sin_nombre_100083);
      }

      .st11 {
        fill: url(#Degradado_sin_nombre_100081);
      }

      .st12 {
        fill: url(#Degradado_sin_nombre_10007);
      }

      .st13 {
        fill: url(#Degradado_sin_nombre_100034);
      }

      .st14 {
        fill: url(#Degradado_sin_nombre_100078);
      }

      .st15 {
        fill: url(#Degradado_sin_nombre_100087);
      }

      .st16 {
        fill: url(#Degradado_sin_nombre_100077);
      }

      .st17 {
        fill: url(#Degradado_sin_nombre_100044);
      }

      .st18 {
        fill: url(#Degradado_sin_nombre_100014);
      }

      .st19 {
        fill: url(#Degradado_sin_nombre_100064);
      }

      .st20 {
        fill: url(#Degradado_sin_nombre_1000107);
      }

      .st21 {
        fill: url(#Degradado_sin_nombre_100075);
      }

      .st22 {
        fill: url(#Degradado_sin_nombre_100035);
      }

      .st23 {
        fill: url(#Degradado_sin_nombre_100059);
      }

      .st24 {
        fill: url(#Degradado_sin_nombre_1000106);
      }

      .st25 {
        fill: url(#Degradado_sin_nombre_100091);
      }

      .st26 {
        fill: url(#Degradado_sin_nombre_100097);
      }

      .st27 {
        fill: url(#Degradado_sin_nombre_1000127);
      }

      .st28 {
        fill: url(#Degradado_sin_nombre_100071);
      }

      .st29 {
        fill: url(#Degradado_sin_nombre_100042);
      }

      .st30 {
        fill: url(#Degradado_sin_nombre_100056);
      }

      .st31 {
        fill: url(#Degradado_sin_nombre_100095);
      }

      .st32 {
        fill: url(#Degradado_sin_nombre_100066);
      }

      .st33 {
        fill: url(#Degradado_sin_nombre_1000126);
      }

      .st34 {
        fill: url(#Degradado_sin_nombre_10001);
      }

      .st35 {
        fill: url(#Degradado_sin_nombre_1000104);
      }

      .st36 {
        fill: url(#Degradado_sin_nombre_10009);
      }

      .st37 {
        fill: url(#Degradado_sin_nombre_100025);
      }

      .st38 {
        fill: url(#Degradado_sin_nombre_100048);
      }

      .st39 {
        fill: url(#Degradado_sin_nombre_100055);
      }

      .st40 {
        fill: url(#Degradado_sin_nombre_1000105);
      }

      .st41 {
        fill: url(#Degradado_sin_nombre_100017);
      }

      .st42 {
        fill: url(#Degradado_sin_nombre_1000);
      }

      .st43 {
        fill: url(#Degradado_sin_nombre_100027);
      }

      .st44 {
        fill: url(#Degradado_sin_nombre_100018);
      }

      .st45 {
        fill: url(#Degradado_sin_nombre_1000118);
      }

      .st46 {
        fill: url(#Degradado_sin_nombre_100084);
      }

      .st47 {
        fill: url(#Degradado_sin_nombre_100094);
      }

      .st48 {
        fill: url(#Degradado_sin_nombre_100026);
      }

      .st49 {
        fill: url(#Degradado_sin_nombre_1000123);
      }

      .st50 {
        fill: url(#Degradado_sin_nombre_1000102);
      }

      .st51 {
        fill: url(#Degradado_sin_nombre_1000112);
      }

      .st52 {
        fill: url(#Degradado_sin_nombre_100030);
      }

      .st53 {
        fill: url(#Degradado_sin_nombre_1000108);
      }

      .st54 {
        fill: url(#Degradado_sin_nombre_100082);
      }

      .st55 {
        fill: url(#Degradado_sin_nombre_1000125);
      }

      .st56 {
        fill: url(#Degradado_sin_nombre_1000115);
      }

      .st57 {
        fill: url(#Degradado_sin_nombre_1000100);
      }

      .st58 {
        fill: url(#Degradado_sin_nombre_1000110);
      }

      .st59 {
        fill: url(#Degradado_sin_nombre_100074);
      }

      .st60 {
        fill: url(#Degradado_sin_nombre_100033);
      }

      .st61 {
        fill: url(#Degradado_sin_nombre_1000124);
      }

      .st62 {
        fill: url(#Degradado_sin_nombre_100092);
      }

      .st63 {
        fill: url(#Degradado_sin_nombre_1000109);
      }

      .st64 {
        fill: url(#Degradado_sin_nombre_100090);
      }

      .st65 {
        fill: url(#Degradado_sin_nombre_100036);
      }

      .st66 {
        fill: url(#Degradado_sin_nombre_10004);
      }

      .st67 {
        fill: url(#Degradado_sin_nombre_100058);
      }

      .st68 {
        fill: url(#Degradado_sin_nombre_100098);
      }

      .st69 {
        fill: url(#Degradado_sin_nombre_100012);
      }

      .st70 {
        fill: url(#Degradado_sin_nombre_1000117);
      }

      .st71 {
        fill: url(#Degradado_sin_nombre_100020);
      }

      .st72 {
        fill: url(#Degradado_sin_nombre_100089);
      }

      .st73 {
        fill: url(#Degradado_sin_nombre_100010);
      }

      .st74 {
        fill: url(#Degradado_sin_nombre_100057);
      }

      .st75 {
        fill: url(#Degradado_sin_nombre_100049);
      }

      .st76 {
        fill: url(#Degradado_sin_nombre_100065);
      }

      .st77 {
        fill: url(#Degradado_sin_nombre_100050);
      }

      .st78 {
        fill: url(#Degradado_sin_nombre_100052);
      }

      .st79 {
        fill: url(#Degradado_sin_nombre_10006);
      }

      .st80 {
        fill: url(#Degradado_sin_nombre_100041);
      }

      .st81 {
        fill: url(#Degradado_sin_nombre_100070);
      }

      .st82 {
        fill: url(#Degradado_sin_nombre_100067);
      }

      .st83 {
        fill: url(#Degradado_sin_nombre_100060);
      }

      .st84 {
        fill: url(#Degradado_sin_nombre_100022);
      }

      .st85 {
        fill: url(#Degradado_sin_nombre_100040);
      }

      .st86 {
        fill: url(#Degradado_sin_nombre_100073);
      }

      .st87 {
        fill: url(#Degradado_sin_nombre_100079);
      }

      .st88 {
        fill: url(#Degradado_sin_nombre_100028);
      }

      .st89 {
        fill: url(#Degradado_sin_nombre_100076);
      }

      .st90 {
        fill: url(#Degradado_sin_nombre_100053);
      }

      .st91 {
        fill: url(#Degradado_sin_nombre_100063);
      }

      .st92 {
        fill: url(#Degradado_sin_nombre_100047);
      }

      .st93 {
        fill: url(#Degradado_sin_nombre_100016);
      }

      .st94 {
        fill: url(#Degradado_sin_nombre_1000122);
      }

      .st95 {
        fill: url(#Degradado_sin_nombre_10005);
      }

      .st96 {
        fill: url(#Degradado_sin_nombre_10002);
      }

      .st97 {
        fill: url(#Degradado_sin_nombre_100037);
      }

      .st98 {
        fill: url(#Degradado_sin_nombre_100043);
      }

      .st99 {
        fill: url(#Degradado_sin_nombre_1000116);
      }

      .st100 {
        fill: url(#Degradado_sin_nombre_100015);
      }

      .st101 {
        fill: url(#Degradado_sin_nombre_100013);
      }

      .st102 {
        fill: url(#Degradado_sin_nombre_10008);
      }

      .st103 {
        fill: url(#Degradado_sin_nombre_100045);
      }

      .st104 {
        fill: url(#Degradado_sin_nombre_1000101);
      }

      .st105 {
        fill: url(#Degradado_sin_nombre_1000119);
      }

      .st106 {
        fill: url(#Degradado_sin_nombre_1000113);
      }

      .st107 {
        fill: url(#Degradado_sin_nombre_100093);
      }

      .st108 {
        fill: url(#Degradado_sin_nombre_100032);
      }

      .st109 {
        fill: url(#Degradado_sin_nombre_100069);
      }

      .st110 {
        fill: url(#Degradado_sin_nombre_100038);
      }

      .st111 {
        fill: url(#Degradado_sin_nombre_1000120);
      }

      .st112 {
        fill: url(#Degradado_sin_nombre_100023);
      }

      .st113 {
        fill: url(#Degradado_sin_nombre_100096);
      }

      .st114 {
        fill: url(#Degradado_sin_nombre_100024);
      }

      .st115 {
        fill: url(#Degradado_sin_nombre_1000114);
      }

      .st116 {
        fill: url(#Degradado_sin_nombre_100031);
      }

      .st117 {
        fill: url(#Degradado_sin_nombre_100039);
      }

      .st118 {
        fill: url(#Degradado_sin_nombre_10003);
      }

      .st119 {
        fill: url(#Degradado_sin_nombre_100086);
      }

      .st120 {
        fill: url(#Degradado_sin_nombre_100088);
      }

      .st121 {
        fill: url(#Degradado_sin_nombre_1000121);
      }

      .st122 {
        fill: url(#Degradado_sin_nombre_100061);
      }

      .st123 {
        fill: url(#Degradado_sin_nombre_100072);
      }

      .st124 {
        fill: url(#Degradado_sin_nombre_100011);
      }

      .st125 {
        fill: url(#Degradado_sin_nombre_100054);
      }

      .st126 {
        fill: url(#Degradado_sin_nombre_1000111);
      }

      .st127 {
        fill: url(#Degradado_sin_nombre_100046);
      }
    </style>
    <linearGradient id="Degradado_sin_nombre_1000" data-name="Degradado sin nombre 1000" x1="180" y1="-256" x2="180.2" y2="-256" gradientTransform="translate(-291 114.3) rotate(-76.2) scale(1 -1)" gradientUnits="userSpaceOnUse">
      <stop offset="0" stop-color="#92f24b"/>
      <stop offset="1" stop-color="#175e0a"/>
    </linearGradient>
    <linearGradient id="Degradado_sin_nombre_10001" data-name="Degradado sin nombre 1000" x1="168.9" y1="-233" x2="169.1" y2="-233" gradientTransform="translate(-91.9 272.9) rotate(-125.3) scale(1 -1)" xlink:href="#Degradado_sin_nombre_1000"/>
    <linearGradient id="Degradado_sin_nombre_10002" data-name="Degradado sin nombre 1000" x1="159.3" y1="-214.5" x2="159.6" y2="-214.5" gradientTransform="translate(-255.6 76.8) rotate(-70) scale(1 -1)" xlink:href="#Degradado_sin_nombre_1000"/>
    <linearGradient id="Degradado_sin_nombre_10003" data-name="Degradado sin nombre 1000" x1="212.1" y1="-243.1" x2="212.2" y2="-243.1" gradientTransform="translate(-319.3 -43.3) rotate(-41.1) scale(1 -1)" xlink:href="#Degradado_sin_nombre_1000"/>
    <linearGradient id="Degradado_sin_nombre_10004" data-name="Degradado sin nombre 1000" x1="180.2" y1="-257" x2="180.5" y2="-257" xlink:href="#Degradado_sin_nombre_1000"/>
    <linearGradient id="Degradado_sin_nombre_10005" data-name="Degradado sin nombre 1000" x1="168.3" y1="-233.8" x2="168.5" y2="-233.8" gradientTransform="translate(-91.9 272.9) rotate(-125.3) scale(1 -1)" xlink:href="#Degradado_sin_nombre_1000"/>
    <linearGradient id="Degradado_sin_nombre_10006" data-name="Degradado sin nombre 1000" x1="159.7" y1="-215.4" x2="160" y2="-215.4" gradientTransform="translate(-255.6 76.8) rotate(-70) scale(1 -1)" xlink:href="#Degradado_sin_nombre_1000"/>
    <linearGradient id="Degradado_sin_nombre_10007" data-name="Degradado sin nombre 1000" x1="212.9" y1="-243.7" x2="213" y2="-243.7" gradientTransform="translate(-319.3 -43.3) rotate(-41.1) scale(1 -1)" xlink:href="#Degradado_sin_nombre_1000"/>
    <linearGradient id="Degradado_sin_nombre_10008" data-name="Degradado sin nombre 1000" x1="180.5" y1="-258" x2="180.7" y2="-258" xlink:href="#Degradado_sin_nombre_1000"/>
    <linearGradient id="Degradado_sin_nombre_10009" data-name="Degradado sin nombre 1000" x1="167.7" y1="-234.6" x2="167.9" y2="-234.6" gradientTransform="translate(-91.9 272.9) rotate(-125.3) scale(1 -1)" xlink:href="#Degradado_sin_nombre_1000"/>
    <linearGradient id="Degradado_sin_nombre_100010" data-name="Degradado sin nombre 1000" x1="160" y1="-216.3" x2="160.3" y2="-216.3" gradientTransform="translate(-255.6 76.8) rotate(-70) scale(1 -1)" xlink:href="#Degradado_sin_nombre_1000"/>
    <linearGradient id="Degradado_sin_nombre_100011" data-name="Degradado sin nombre 1000" x1="213.6" y1="-244.4" x2="213.7" y2="-244.4" gradientTransform="translate(-319.3 -43.3) rotate(-41.1) scale(1 -1)" xlink:href="#Degradado_sin_nombre_1000"/>
    <linearGradient id="Degradado_sin_nombre_100012" data-name="Degradado sin nombre 1000" x1="180.7" y1="-258.9" x2="181" y2="-258.9" xlink:href="#Degradado_sin_nombre_1000"/>
    <linearGradient id="Degradado_sin_nombre_100013" data-name="Degradado sin nombre 1000" x1="167.1" y1="-235.4" x2="167.3" y2="-235.4" gradientTransform="translate(-91.9 272.9) rotate(-125.3) scale(1 -1)" xlink:href="#Degradado_sin_nombre_1000"/>
    <linearGradient id="Degradado_sin_nombre_100014" data-name="Degradado sin nombre 1000" x1="160.3" y1="-217.3" x2="160.6" y2="-217.3" gradientTransform="translate(-255.6 76.8) rotate(-70) scale(1 -1)" xlink:href="#Degradado_sin_nombre_1000"/>
    <linearGradient id="Degradado_sin_nombre_100015" data-name="Degradado sin nombre 1000" x1="214.4" y1="-245" x2="214.5" y2="-245" gradientTransform="translate(-319.3 -43.3) rotate(-41.1) scale(1 -1)" xlink:href="#Degradado_sin_nombre_1000"/>
    <linearGradient id="Degradado_sin_nombre_100016" data-name="Degradado sin nombre 1000" x1="180.9" y1="-259.9" x2="181.2" y2="-259.9" xlink:href="#Degradado_sin_nombre_1000"/>
    <linearGradient id="Degradado_sin_nombre_100017" data-name="Degradado sin nombre 1000" x1="166.6" y1="-236.2" x2="166.8" y2="-236.2" gradientTransform="translate(-91.9 272.9) rotate(-125.3) scale(1 -1)" xlink:href="#Degradado_sin_nombre_1000"/>
    <linearGradient id="Degradado_sin_nombre_100018" data-name="Degradado sin nombre 1000" x1="160.7" y1="-218.2" x2="161" y2="-218.2" gradientTransform="translate(-255.6 76.8) rotate(-70) scale(1 -1)" xlink:href="#Degradado_sin_nombre_1000"/>
    <linearGradient id="Degradado_sin_nombre_100019" data-name="Degradado sin nombre 1000" x1="215.1" y1="-245.7" x2="215.2" y2="-245.7" gradientTransform="translate(-319.3 -43.3) rotate(-41.1) scale(1 -1)" xlink:href="#Degradado_sin_nombre_1000"/>
    <linearGradient id="Degradado_sin_nombre_100020" data-name="Degradado sin nombre 1000" x1="179.4" y1="-256.7" x2="179.7" y2="-256.7" xlink:href="#Degradado_sin_nombre_1000"/>
    <linearGradient id="Degradado_sin_nombre_100021" data-name="Degradado sin nombre 1000" x1="168" y1="-233" x2="168.2" y2="-233" gradientTransform="translate(-91.9 272.9) rotate(-125.3) scale(1 -1)" xlink:href="#Degradado_sin_nombre_1000"/>
    <linearGradient id="Degradado_sin_nombre_100022" data-name="Degradado sin nombre 1000" x1="158.8" y1="-215.2" x2="159.1" y2="-215.2" gradientTransform="translate(-255.6 76.8) rotate(-70) scale(1 -1)" xlink:href="#Degradado_sin_nombre_1000"/>
    <linearGradient id="Degradado_sin_nombre_100023" data-name="Degradado sin nombre 1000" x1="212.1" y1="-244" x2="212.2" y2="-244" gradientTransform="translate(-319.3 -43.3) rotate(-41.1) scale(1 -1)" xlink:href="#Degradado_sin_nombre_1000"/>
    <linearGradient id="Degradado_sin_nombre_100024" data-name="Degradado sin nombre 1000" x1="179.7" y1="-257.7" x2="179.9" y2="-257.7" xlink:href="#Degradado_sin_nombre_1000"/>
    <linearGradient id="Degradado_sin_nombre_100025" data-name="Degradado sin nombre 1000" x1="167.4" y1="-233.8" x2="167.6" y2="-233.8" gradientTransform="translate(-91.9 272.9) rotate(-125.3) scale(1 -1)" xlink:href="#Degradado_sin_nombre_1000"/>
    <linearGradient id="Degradado_sin_nombre_100026" data-name="Degradado sin nombre 1000" x1="159.2" y1="-216.2" x2="159.5" y2="-216.2" gradientTransform="translate(-255.6 76.8) rotate(-70) scale(1 -1)" xlink:href="#Degradado_sin_nombre_1000"/>
    <linearGradient id="Degradado_sin_nombre_100027" data-name="Degradado sin nombre 1000" x1="212.8" y1="-244.6" x2="212.9" y2="-244.6" gradientTransform="translate(-319.3 -43.3) rotate(-41.1) scale(1 -1)" xlink:href="#Degradado_sin_nombre_1000"/>
    <linearGradient id="Degradado_sin_nombre_100028" data-name="Degradado sin nombre 1000" x1="179.9" y1="-258.7" x2="180.2" y2="-258.7" xlink:href="#Degradado_sin_nombre_1000"/>
    <linearGradient id="Degradado_sin_nombre_100029" data-name="Degradado sin nombre 1000" x1="166.8" y1="-234.6" x2="167" y2="-234.6" gradientTransform="translate(-91.9 272.9) rotate(-125.3) scale(1 -1)" xlink:href="#Degradado_sin_nombre_1000"/>
    <linearGradient id="Degradado_sin_nombre_100030" data-name="Degradado sin nombre 1000" x1="159.5" y1="-217.1" x2="159.8" y2="-217.1" gradientTransform="translate(-255.6 76.8) rotate(-70) scale(1 -1)" xlink:href="#Degradado_sin_nombre_1000"/>
    <linearGradient id="Degradado_sin_nombre_100031" data-name="Degradado sin nombre 1000" x1="213.6" y1="-245.3" x2="213.7" y2="-245.3" gradientTransform="translate(-319.3 -43.3) rotate(-41.1) scale(1 -1)" xlink:href="#Degradado_sin_nombre_1000"/>
    <linearGradient id="Degradado_sin_nombre_100032" data-name="Degradado sin nombre 1000" x1="180.1" y1="-259.6" x2="180.4" y2="-259.6" xlink:href="#Degradado_sin_nombre_1000"/>
    <linearGradient id="Degradado_sin_nombre_100033" data-name="Degradado sin nombre 1000" x1="166.2" y1="-235.4" x2="166.5" y2="-235.4" gradientTransform="translate(-91.9 272.9) rotate(-125.3) scale(1 -1)" xlink:href="#Degradado_sin_nombre_1000"/>
    <linearGradient id="Degradado_sin_nombre_100034" data-name="Degradado sin nombre 1000" x1="159.9" y1="-218" x2="160.2" y2="-218" gradientTransform="translate(-255.6 76.8) rotate(-70) scale(1 -1)" xlink:href="#Degradado_sin_nombre_1000"/>
    <linearGradient id="Degradado_sin_nombre_100035" data-name="Degradado sin nombre 1000" x1="214.3" y1="-245.9" x2="214.4" y2="-245.9" gradientTransform="translate(-319.3 -43.3) rotate(-41.1) scale(1 -1)" xlink:href="#Degradado_sin_nombre_1000"/>
    <linearGradient id="Degradado_sin_nombre_100036" data-name="Degradado sin nombre 1000" x1="178.6" y1="-256.4" x2="178.9" y2="-256.4" xlink:href="#Degradado_sin_nombre_1000"/>
    <linearGradient id="Degradado_sin_nombre_100037" data-name="Degradado sin nombre 1000" x1="167.7" y1="-232.1" x2="167.9" y2="-232.1" gradientTransform="translate(-91.9 272.9) rotate(-125.3) scale(1 -1)" xlink:href="#Degradado_sin_nombre_1000"/>
    <linearGradient id="Degradado_sin_nombre_100038" data-name="Degradado sin nombre 1000" x1="158" y1="-214.9" x2="158.3" y2="-214.9" gradientTransform="translate(-255.6 76.8) rotate(-70) scale(1 -1)" xlink:href="#Degradado_sin_nombre_1000"/>
    <linearGradient id="Degradado_sin_nombre_100039" data-name="Degradado sin nombre 1000" x1="211.2" y1="-244.1" x2="211.3" y2="-244.1" gradientTransform="translate(-319.3 -43.3) rotate(-41.1) scale(1 -1)" xlink:href="#Degradado_sin_nombre_1000"/>
    <linearGradient id="Degradado_sin_nombre_100040" data-name="Degradado sin nombre 1000" x1="178.9" y1="-257.3" x2="179.1" y2="-257.3" xlink:href="#Degradado_sin_nombre_1000"/>
    <linearGradient id="Degradado_sin_nombre_100041" data-name="Degradado sin nombre 1000" x1="167.1" y1="-233" x2="167.3" y2="-233" gradientTransform="translate(-91.9 272.9) rotate(-125.3) scale(1 -1)" xlink:href="#Degradado_sin_nombre_1000"/>
    <linearGradient id="Degradado_sin_nombre_100042" data-name="Degradado sin nombre 1000" x1="158.3" y1="-215.9" x2="158.6" y2="-215.9" gradientTransform="translate(-255.6 76.8) rotate(-70) scale(1 -1)" xlink:href="#Degradado_sin_nombre_1000"/>
    <linearGradient id="Degradado_sin_nombre_100043" data-name="Degradado sin nombre 1000" x1="211.9" y1="-244.8" x2="212.1" y2="-244.8" gradientTransform="translate(-319.3 -43.3) rotate(-41.1) scale(1 -1)" xlink:href="#Degradado_sin_nombre_1000"/>
    <linearGradient id="Degradado_sin_nombre_100044" data-name="Degradado sin nombre 1000" x1="179.1" y1="-258.3" x2="179.4" y2="-258.3" xlink:href="#Degradado_sin_nombre_1000"/>
    <linearGradient id="Degradado_sin_nombre_100045" data-name="Degradado sin nombre 1000" x1="166.6" y1="-233.8" x2="166.8" y2="-233.8" gradientTransform="translate(-91.9 272.9) rotate(-125.3) scale(1 -1)" xlink:href="#Degradado_sin_nombre_1000"/>
    <linearGradient id="Degradado_sin_nombre_100046" data-name="Degradado sin nombre 1000" x1="158.7" y1="-216.8" x2="159" y2="-216.8" gradientTransform="translate(-255.6 76.8) rotate(-70) scale(1 -1)" xlink:href="#Degradado_sin_nombre_1000"/>
    <linearGradient id="Degradado_sin_nombre_100047" data-name="Degradado sin nombre 1000" x1="212.7" y1="-245.5" x2="212.8" y2="-245.5" gradientTransform="translate(-319.3 -43.3) rotate(-41.1) scale(1 -1)" xlink:href="#Degradado_sin_nombre_1000"/>
    <linearGradient id="Degradado_sin_nombre_100048" data-name="Degradado sin nombre 1000" x1="179.3" y1="-259.3" x2="179.6" y2="-259.3" xlink:href="#Degradado_sin_nombre_1000"/>
    <linearGradient id="Degradado_sin_nombre_100049" data-name="Degradado sin nombre 1000" x1="166" y1="-234.6" x2="166.2" y2="-234.6" gradientTransform="translate(-91.9 272.9) rotate(-125.3) scale(1 -1)" xlink:href="#Degradado_sin_nombre_1000"/>
    <linearGradient id="Degradado_sin_nombre_100050" data-name="Degradado sin nombre 1000" x1="159" y1="-217.8" x2="159.3" y2="-217.8" gradientTransform="translate(-255.6 76.8) rotate(-70) scale(1 -1)" xlink:href="#Degradado_sin_nombre_1000"/>
    <linearGradient id="Degradado_sin_nombre_100051" data-name="Degradado sin nombre 1000" x1="213.4" y1="-246.1" x2="213.6" y2="-246.1" gradientTransform="translate(-319.3 -43.3) rotate(-41.1) scale(1 -1)" xlink:href="#Degradado_sin_nombre_1000"/>
    <linearGradient id="Degradado_sin_nombre_100052" data-name="Degradado sin nombre 1000" x1="179.6" y1="-260.2" x2="179.8" y2="-260.2" xlink:href="#Degradado_sin_nombre_1000"/>
    <linearGradient id="Degradado_sin_nombre_100053" data-name="Degradado sin nombre 1000" x1="165.4" y1="-235.4" x2="165.6" y2="-235.4" gradientTransform="translate(-91.9 272.9) rotate(-125.3) scale(1 -1)" xlink:href="#Degradado_sin_nombre_1000"/>
    <linearGradient id="Degradado_sin_nombre_100054" data-name="Degradado sin nombre 1000" x1="159.3" y1="-218.7" x2="159.7" y2="-218.7" gradientTransform="translate(-255.6 76.8) rotate(-70) scale(1 -1)" xlink:href="#Degradado_sin_nombre_1000"/>
    <linearGradient id="Degradado_sin_nombre_100055" data-name="Degradado sin nombre 1000" x1="214.2" y1="-246.8" x2="214.3" y2="-246.8" gradientTransform="translate(-319.3 -43.3) rotate(-41.1) scale(1 -1)" xlink:href="#Degradado_sin_nombre_1000"/>
    <linearGradient id="Degradado_sin_nombre_100056" data-name="Degradado sin nombre 1000" x1="178.1" y1="-257.1" x2="178.3" y2="-257.1" xlink:href="#Degradado_sin_nombre_1000"/>
    <linearGradient id="Degradado_sin_nombre_100057" data-name="Degradado sin nombre 1000" x1="166.8" y1="-232.2" x2="167" y2="-232.2" gradientTransform="translate(-91.9 272.9) rotate(-125.3) scale(1 -1)" xlink:href="#Degradado_sin_nombre_1000"/>
    <linearGradient id="Degradado_sin_nombre_100058" data-name="Degradado sin nombre 1000" x1="157.5" y1="-215.7" x2="157.8" y2="-215.7" gradientTransform="translate(-255.6 76.8) rotate(-70) scale(1 -1)" xlink:href="#Degradado_sin_nombre_1000"/>
    <linearGradient id="Degradado_sin_nombre_100059" data-name="Degradado sin nombre 1000" x1="211.1" y1="-245" x2="211.3" y2="-245" gradientTransform="translate(-319.3 -43.3) rotate(-41.1) scale(1 -1)" xlink:href="#Degradado_sin_nombre_1000"/>
    <linearGradient id="Degradado_sin_nombre_100060" data-name="Degradado sin nombre 1000" x1="178.3" y1="-258" x2="178.6" y2="-258" xlink:href="#Degradado_sin_nombre_1000"/>
    <linearGradient id="Degradado_sin_nombre_100061" data-name="Degradado sin nombre 1000" x1="166.2" y1="-233" x2="166.5" y2="-233" gradientTransform="translate(-91.9 272.9) rotate(-125.3) scale(1 -1)" xlink:href="#Degradado_sin_nombre_1000"/>
    <linearGradient id="Degradado_sin_nombre_100062" data-name="Degradado sin nombre 1000" x1="157.9" y1="-216.6" x2="158.2" y2="-216.6" gradientTransform="translate(-255.6 76.8) rotate(-70) scale(1 -1)" xlink:href="#Degradado_sin_nombre_1000"/>
    <linearGradient id="Degradado_sin_nombre_100063" data-name="Degradado sin nombre 1000" x1="211.9" y1="-245.7" x2="212" y2="-245.7" gradientTransform="translate(-319.3 -43.3) rotate(-41.1) scale(1 -1)" xlink:href="#Degradado_sin_nombre_1000"/>
    <linearGradient id="Degradado_sin_nombre_100064" data-name="Degradado sin nombre 1000" x1="178.5" y1="-259" x2="178.8" y2="-259" xlink:href="#Degradado_sin_nombre_1000"/>
    <linearGradient id="Degradado_sin_nombre_100065" data-name="Degradado sin nombre 1000" x1="165.7" y1="-233.8" x2="165.9" y2="-233.8" gradientTransform="translate(-91.9 272.9) rotate(-125.3) scale(1 -1)" xlink:href="#Degradado_sin_nombre_1000"/>
    <linearGradient id="Degradado_sin_nombre_100066" data-name="Degradado sin nombre 1000" x1="158.2" y1="-217.6" x2="158.5" y2="-217.6" gradientTransform="translate(-255.6 76.8) rotate(-70) scale(1 -1)" xlink:href="#Degradado_sin_nombre_1000"/>
    <linearGradient id="Degradado_sin_nombre_100067" data-name="Degradado sin nombre 1000" x1="212.6" y1="-246.3" x2="212.8" y2="-246.3" gradientTransform="translate(-319.3 -43.3) rotate(-41.1) scale(1 -1)" xlink:href="#Degradado_sin_nombre_1000"/>
    <linearGradient id="Degradado_sin_nombre_100068" data-name="Degradado sin nombre 1000" x1="178.8" y1="-260" x2="179" y2="-260" xlink:href="#Degradado_sin_nombre_1000"/>
    <linearGradient id="Degradado_sin_nombre_100069" data-name="Degradado sin nombre 1000" x1="165.1" y1="-234.6" x2="165.3" y2="-234.6" gradientTransform="translate(-91.9 272.9) rotate(-125.3) scale(1 -1)" xlink:href="#Degradado_sin_nombre_1000"/>
    <linearGradient id="Degradado_sin_nombre_100070" data-name="Degradado sin nombre 1000" x1="158.5" y1="-218.5" x2="158.8" y2="-218.5" gradientTransform="translate(-255.6 76.8) rotate(-70) scale(1 -1)" xlink:href="#Degradado_sin_nombre_1000"/>
    <linearGradient id="Degradado_sin_nombre_100071" data-name="Degradado sin nombre 1000" x1="213.4" y1="-247" x2="213.5" y2="-247" gradientTransform="translate(-319.3 -43.3) rotate(-41.1) scale(1 -1)" xlink:href="#Degradado_sin_nombre_1000"/>
    <linearGradient id="Degradado_sin_nombre_100072" data-name="Degradado sin nombre 1000" x1="177.2" y1="-256.7" x2="177.5" y2="-256.7" xlink:href="#Degradado_sin_nombre_1000"/>
    <linearGradient id="Degradado_sin_nombre_100073" data-name="Degradado sin nombre 1000" x1="166.6" y1="-231.3" x2="166.8" y2="-231.3" gradientTransform="translate(-91.9 272.9) rotate(-125.3) scale(1 -1)" xlink:href="#Degradado_sin_nombre_1000"/>
    <linearGradient id="Degradado_sin_nombre_100074" data-name="Degradado sin nombre 1000" x1="156.7" y1="-215.4" x2="157" y2="-215.4" gradientTransform="translate(-255.6 76.8) rotate(-70) scale(1 -1)" xlink:href="#Degradado_sin_nombre_1000"/>
    <linearGradient id="Degradado_sin_nombre_100075" data-name="Degradado sin nombre 1000" x1="210.3" y1="-245.2" x2="210.4" y2="-245.2" gradientTransform="translate(-319.3 -43.3) rotate(-41.1) scale(1 -1)" xlink:href="#Degradado_sin_nombre_1000"/>
    <linearGradient id="Degradado_sin_nombre_100076" data-name="Degradado sin nombre 1000" x1="177.5" y1="-257.7" x2="177.7" y2="-257.7" xlink:href="#Degradado_sin_nombre_1000"/>
    <linearGradient id="Degradado_sin_nombre_100077" data-name="Degradado sin nombre 1000" x1="166" y1="-232.1" x2="166.2" y2="-232.1" gradientTransform="translate(-91.9 272.9) rotate(-125.3) scale(1 -1)" xlink:href="#Degradado_sin_nombre_1000"/>
    <linearGradient id="Degradado_sin_nombre_100078" data-name="Degradado sin nombre 1000" x1="157" y1="-216.4" x2="157.3" y2="-216.4" gradientTransform="translate(-255.6 76.8) rotate(-70) scale(1 -1)" xlink:href="#Degradado_sin_nombre_1000"/>
    <linearGradient id="Degradado_sin_nombre_100079" data-name="Degradado sin nombre 1000" x1="211" y1="-245.9" x2="211.1" y2="-245.9" gradientTransform="translate(-319.3 -43.3) rotate(-41.1) scale(1 -1)" xlink:href="#Degradado_sin_nombre_1000"/>
    <linearGradient id="Degradado_sin_nombre_100080" data-name="Degradado sin nombre 1000" x1="177.7" y1="-258.6" x2="178" y2="-258.6" xlink:href="#Degradado_sin_nombre_1000"/>
    <linearGradient id="Degradado_sin_nombre_100081" data-name="Degradado sin nombre 1000" x1="165.4" y1="-233" x2="165.6" y2="-233" gradientTransform="translate(-91.9 272.9) rotate(-125.3) scale(1 -1)" xlink:href="#Degradado_sin_nombre_1000"/>
    <linearGradient id="Degradado_sin_nombre_100082" data-name="Degradado sin nombre 1000" x1="157.3" y1="-217.3" x2="157.7" y2="-217.3" gradientTransform="translate(-255.6 76.8) rotate(-70) scale(1 -1)" xlink:href="#Degradado_sin_nombre_1000"/>
    <linearGradient id="Degradado_sin_nombre_100083" data-name="Degradado sin nombre 1000" x1="211.8" y1="-246.5" x2="211.9" y2="-246.5" gradientTransform="translate(-319.3 -43.3) rotate(-41.1) scale(1 -1)" xlink:href="#Degradado_sin_nombre_1000"/>
    <linearGradient id="Degradado_sin_nombre_100084" data-name="Degradado sin nombre 1000" x1="178" y1="-259.6" x2="178.2" y2="-259.6" xlink:href="#Degradado_sin_nombre_1000"/>
    <linearGradient id="Degradado_sin_nombre_100085" data-name="Degradado sin nombre 1000" x1="164.8" y1="-233.8" x2="165" y2="-233.8" gradientTransform="translate(-91.9 272.9) rotate(-125.3) scale(1 -1)" xlink:href="#Degradado_sin_nombre_1000"/>
    <linearGradient id="Degradado_sin_nombre_100086" data-name="Degradado sin nombre 1000" x1="157.7" y1="-218.2" x2="158" y2="-218.2" gradientTransform="translate(-255.6 76.8) rotate(-70) scale(1 -1)" xlink:href="#Degradado_sin_nombre_1000"/>
    <linearGradient id="Degradado_sin_nombre_100087" data-name="Degradado sin nombre 1000" x1="212.5" y1="-247.2" x2="212.6" y2="-247.2" gradientTransform="translate(-319.3 -43.3) rotate(-41.1) scale(1 -1)" xlink:href="#Degradado_sin_nombre_1000"/>
    <linearGradient id="Degradado_sin_nombre_100088" data-name="Degradado sin nombre 1000" x1="178.2" y1="-260.6" x2="178.5" y2="-260.6" xlink:href="#Degradado_sin_nombre_1000"/>
    <linearGradient id="Degradado_sin_nombre_100089" data-name="Degradado sin nombre 1000" x1="164.3" y1="-234.6" x2="164.5" y2="-234.6" gradientTransform="translate(-91.9 272.9) rotate(-125.3) scale(1 -1)" xlink:href="#Degradado_sin_nombre_1000"/>
    <linearGradient id="Degradado_sin_nombre_100090" data-name="Degradado sin nombre 1000" x1="158" y1="-219.2" x2="158.3" y2="-219.2" gradientTransform="translate(-255.6 76.8) rotate(-70) scale(1 -1)" xlink:href="#Degradado_sin_nombre_1000"/>
    <linearGradient id="Degradado_sin_nombre_100091" data-name="Degradado sin nombre 1000" x1="213.3" y1="-247.8" x2="213.4" y2="-247.8" gradientTransform="translate(-319.3 -43.3) rotate(-41.1) scale(1 -1)" xlink:href="#Degradado_sin_nombre_1000"/>
    <linearGradient id="Degradado_sin_nombre_100092" data-name="Degradado sin nombre 1000" x1="175.9" y1="-257" x2="176.1" y2="-257" xlink:href="#Degradado_sin_nombre_1000"/>
    <linearGradient id="Degradado_sin_nombre_100093" data-name="Degradado sin nombre 1000" x1="165.4" y1="-230.5" x2="165.6" y2="-230.5" gradientTransform="translate(-91.9 272.9) rotate(-125.3) scale(1 -1)" xlink:href="#Degradado_sin_nombre_1000"/>
    <linearGradient id="Degradado_sin_nombre_100094" data-name="Degradado sin nombre 1000" x1="155.3" y1="-215.9" x2="155.6" y2="-215.9" gradientTransform="translate(-255.6 76.8) rotate(-70) scale(1 -1)" xlink:href="#Degradado_sin_nombre_1000"/>
    <linearGradient id="Degradado_sin_nombre_100095" data-name="Degradado sin nombre 1000" x1="209.3" y1="-246.3" x2="209.4" y2="-246.3" gradientTransform="translate(-319.3 -43.3) rotate(-41.1) scale(1 -1)" xlink:href="#Degradado_sin_nombre_1000"/>
    <linearGradient id="Degradado_sin_nombre_100096" data-name="Degradado sin nombre 1000" x1="176.1" y1="-258" x2="176.4" y2="-258" xlink:href="#Degradado_sin_nombre_1000"/>
    <linearGradient id="Degradado_sin_nombre_100097" data-name="Degradado sin nombre 1000" x1="164.8" y1="-231.3" x2="165" y2="-231.3" gradientTransform="translate(-91.9 272.9) rotate(-125.3) scale(1 -1)" xlink:href="#Degradado_sin_nombre_1000"/>
    <linearGradient id="Degradado_sin_nombre_100098" data-name="Degradado sin nombre 1000" x1="155.7" y1="-216.9" x2="156" y2="-216.9" gradientTransform="translate(-255.6 76.8) rotate(-70) scale(1 -1)" xlink:href="#Degradado_sin_nombre_1000"/>
    <linearGradient id="Degradado_sin_nombre_100099" data-name="Degradado sin nombre 1000" x1="210.1" y1="-246.9" x2="210.2" y2="-246.9" gradientTransform="translate(-319.3 -43.3) rotate(-41.1) scale(1 -1)" xlink:href="#Degradado_sin_nombre_1000"/>
    <linearGradient id="Degradado_sin_nombre_1000100" data-name="Degradado sin nombre 1000" x1="176.4" y1="-259" x2="176.6" y2="-259" xlink:href="#Degradado_sin_nombre_1000"/>
    <linearGradient id="Degradado_sin_nombre_1000101" data-name="Degradado sin nombre 1000" x1="164.3" y1="-232.1" x2="164.5" y2="-232.1" gradientTransform="translate(-91.9 272.9) rotate(-125.3) scale(1 -1)" xlink:href="#Degradado_sin_nombre_1000"/>
    <linearGradient id="Degradado_sin_nombre_1000102" data-name="Degradado sin nombre 1000" x1="156" y1="-217.8" x2="156.3" y2="-217.8" gradientTransform="translate(-255.6 76.8) rotate(-70) scale(1 -1)" xlink:href="#Degradado_sin_nombre_1000"/>
    <linearGradient id="Degradado_sin_nombre_1000103" data-name="Degradado sin nombre 1000" x1="210.8" y1="-247.6" x2="211" y2="-247.6" gradientTransform="translate(-319.3 -43.3) rotate(-41.1) scale(1 -1)" xlink:href="#Degradado_sin_nombre_1000"/>
    <linearGradient id="Degradado_sin_nombre_1000104" data-name="Degradado sin nombre 1000" x1="176.6" y1="-260" x2="176.9" y2="-260" xlink:href="#Degradado_sin_nombre_1000"/>
    <linearGradient id="Degradado_sin_nombre_1000105" data-name="Degradado sin nombre 1000" x1="163.7" y1="-233" x2="163.9" y2="-233" gradientTransform="translate(-91.9 272.9) rotate(-125.3) scale(1 -1)" xlink:href="#Degradado_sin_nombre_1000"/>
    <linearGradient id="Degradado_sin_nombre_1000106" data-name="Degradado sin nombre 1000" x1="156.4" y1="-218.7" x2="156.7" y2="-218.7" gradientTransform="translate(-255.6 76.8) rotate(-70) scale(1 -1)" xlink:href="#Degradado_sin_nombre_1000"/>
    <linearGradient id="Degradado_sin_nombre_1000107" data-name="Degradado sin nombre 1000" x1="211.6" y1="-248.2" x2="211.7" y2="-248.2" gradientTransform="translate(-319.3 -43.3) rotate(-41.1) scale(1 -1)" xlink:href="#Degradado_sin_nombre_1000"/>
    <linearGradient id="Degradado_sin_nombre_1000108" data-name="Degradado sin nombre 1000" x1="176.8" y1="-260.9" x2="177.1" y2="-260.9" xlink:href="#Degradado_sin_nombre_1000"/>
    <linearGradient id="Degradado_sin_nombre_1000109" data-name="Degradado sin nombre 1000" x1="163.1" y1="-233.8" x2="163.3" y2="-233.8" gradientTransform="translate(-91.9 272.9) rotate(-125.3) scale(1 -1)" xlink:href="#Degradado_sin_nombre_1000"/>
    <linearGradient id="Degradado_sin_nombre_1000110" data-name="Degradado sin nombre 1000" x1="156.7" y1="-219.7" x2="157" y2="-219.7" gradientTransform="translate(-255.6 76.8) rotate(-70) scale(1 -1)" xlink:href="#Degradado_sin_nombre_1000"/>
    <linearGradient id="Degradado_sin_nombre_1000111" data-name="Degradado sin nombre 1000" x1="212.3" y1="-248.9" x2="212.5" y2="-248.9" gradientTransform="translate(-319.3 -43.3) rotate(-41.1) scale(1 -1)" xlink:href="#Degradado_sin_nombre_1000"/>
    <linearGradient id="Degradado_sin_nombre_1000112" data-name="Degradado sin nombre 1000" x1="176.7" y1="-257.4" x2="177" y2="-257.4" xlink:href="#Degradado_sin_nombre_1000"/>
    <linearGradient id="Degradado_sin_nombre_1000113" data-name="Degradado sin nombre 1000" x1="165.7" y1="-231.4" x2="165.9" y2="-231.4" gradientTransform="translate(-91.9 272.9) rotate(-125.3) scale(1 -1)" xlink:href="#Degradado_sin_nombre_1000"/>
    <linearGradient id="Degradado_sin_nombre_1000114" data-name="Degradado sin nombre 1000" x1="156.2" y1="-216.2" x2="156.5" y2="-216.2" gradientTransform="translate(-255.6 76.8) rotate(-70) scale(1 -1)" xlink:href="#Degradado_sin_nombre_1000"/>
    <linearGradient id="Degradado_sin_nombre_1000115" data-name="Degradado sin nombre 1000" x1="210.2" y1="-246.1" x2="210.3" y2="-246.1" gradientTransform="translate(-319.3 -43.3) rotate(-41.1) scale(1 -1)" xlink:href="#Degradado_sin_nombre_1000"/>
    <linearGradient id="Degradado_sin_nombre_1000116" data-name="Degradado sin nombre 1000" x1="176.9" y1="-258.4" x2="177.2" y2="-258.4" xlink:href="#Degradado_sin_nombre_1000"/>
    <linearGradient id="Degradado_sin_nombre_1000117" data-name="Degradado sin nombre 1000" x1="165.1" y1="-232.2" x2="165.3" y2="-232.2" gradientTransform="translate(-91.9 272.9) rotate(-125.3) scale(1 -1)" xlink:href="#Degradado_sin_nombre_1000"/>
    <linearGradient id="Degradado_sin_nombre_1000118" data-name="Degradado sin nombre 1000" x1="156.5" y1="-217.1" x2="156.8" y2="-217.1" gradientTransform="translate(-255.6 76.8) rotate(-70) scale(1 -1)" xlink:href="#Degradado_sin_nombre_1000"/>
    <linearGradient id="Degradado_sin_nombre_1000119" data-name="Degradado sin nombre 1000" x1="211" y1="-246.7" x2="211.1" y2="-246.7" gradientTransform="translate(-319.3 -43.3) rotate(-41.1) scale(1 -1)" xlink:href="#Degradado_sin_nombre_1000"/>
    <linearGradient id="Degradado_sin_nombre_1000120" data-name="Degradado sin nombre 1000" x1="177.2" y1="-259.3" x2="177.4" y2="-259.3" xlink:href="#Degradado_sin_nombre_1000"/>
    <linearGradient id="Degradado_sin_nombre_1000121" data-name="Degradado sin nombre 1000" x1="164.5" y1="-233" x2="164.7" y2="-233" gradientTransform="translate(-91.9 272.9) rotate(-125.3) scale(1 -1)" xlink:href="#Degradado_sin_nombre_1000"/>
    <linearGradient id="Degradado_sin_nombre_1000122" data-name="Degradado sin nombre 1000" x1="156.9" y1="-218.1" x2="157.2" y2="-218.1" gradientTransform="translate(-255.6 76.8) rotate(-70) scale(1 -1)" xlink:href="#Degradado_sin_nombre_1000"/>
    <linearGradient id="Degradado_sin_nombre_1000123" data-name="Degradado sin nombre 1000" x1="211.7" y1="-247.4" x2="211.8" y2="-247.4" gradientTransform="translate(-319.3 -43.3) rotate(-41.1) scale(1 -1)" xlink:href="#Degradado_sin_nombre_1000"/>
    <linearGradient id="Degradado_sin_nombre_1000124" data-name="Degradado sin nombre 1000" x1="177.4" y1="-260.3" x2="177.7" y2="-260.3" xlink:href="#Degradado_sin_nombre_1000"/>
    <linearGradient id="Degradado_sin_nombre_1000125" data-name="Degradado sin nombre 1000" x1="163.9" y1="-233.8" x2="164.2" y2="-233.8" gradientTransform="translate(-91.9 272.9) rotate(-125.3) scale(1 -1)" xlink:href="#Degradado_sin_nombre_1000"/>
    <linearGradient id="Degradado_sin_nombre_1000126" data-name="Degradado sin nombre 1000" x1="157.2" y1="-219" x2="157.5" y2="-219" gradientTransform="translate(-255.6 76.8) rotate(-70) scale(1 -1)" xlink:href="#Degradado_sin_nombre_1000"/>
    <linearGradient id="Degradado_sin_nombre_1000127" data-name="Degradado sin nombre 1000" x1="212.5" y1="-248.1" x2="212.6" y2="-248.1" gradientTransform="translate(-319.3 -43.3) rotate(-41.1) scale(1 -1)" xlink:href="#Degradado_sin_nombre_1000"/>
  </defs>
  <g>
    <g>
      <path class="st42" d="M.6.5c0,0,0-.2,0-.3,0,0,0,.2,0,.3Z"/>
      <path class="st34" d="M.6.5s0-.2,0-.2c0,0,0,.2,0,.2Z"/>
      <path class="st96" d="M.4.1c0,.1.1.3.1.4,0-.1,0-.3-.1-.4h0Z"/>
      <path class="st118" d="M.3.3c0,0,0,.2,0,.2,0,0,0-.2,0-.2Z"/>
    </g>
    <g>
      <path class="st66" d="M1.6.5c0,0,0-.2,0-.3,0,0,0,.2,0,.3Z"/>
      <path class="st95" d="M1.6.5s0-.2,0-.2c0,0,0,.2,0,.2Z"/>
      <path class="st79" d="M1.4.1c0,.1.1.3.1.4,0-.1,0-.3-.1-.4h0Z"/>
      <path class="st12" d="M1.3.3c0,0,0,.2,0,.2,0,0,0-.2,0-.2Z"/>
    </g>
    <g>
      <path class="st102" d="M2.6.5c0,0,0-.2,0-.3,0,0,0,.2,0,.3Z"/>
      <path class="st36" d="M2.6.5s0-.2,0-.2c0,0,0,.2,0,.2Z"/>
      <path class="st73" d="M2.4.1c0,.1.1.3.1.4,0-.1,0-.3-.1-.4h0Z"/>
      <path class="st124" d="M2.3.3c0,0,0,.2,0,.2,0,0,0-.2,0-.2Z"/>
    </g>
    <g>
      <path class="st69" d="M3.6.5c0,0,0-.2,0-.3,0,0,0,.2,0,.3Z"/>
      <path class="st101" d="M3.6.5s0-.2,0-.2c0,0,0,.2,0,.2Z"/>
      <path class="st18" d="M3.4.1c0,.1.1.3.1.4,0-.1,0-.3-.1-.4h0Z"/>
      <path class="st100" d="M3.3.3c0,0,0,.2,0,.2,0,0,0-.2,0-.2Z"/>
    </g>
    <g>
      <path class="st93" d="M4.6.5c0,0,0-.2,0-.3,0,0,0,.2,0,.3Z"/>
      <path class="st41" d="M4.6.5s0-.2,0-.2c0,0,0,.2,0,.2Z"/>
      <path class="st44" d="M4.4.1c0,.1.1.3.1.4,0-.1,0-.3-.1-.4h0Z"/>
      <path class="st4" d="M4.3.3c0,0,0,.2,0,.2,0,0,0-.2,0-.2Z"/>
    </g>
  </g>
  <g>
    <g>
      <path class="st71" d="M1.1,1.2c0,0,0-.2,0-.3,0,0,0,.2,0,.3Z"/>
      <path class="st9" d="M1.2,1.2s0-.2,0-.2c0,0,0,.2,0,.2Z"/>
      <path class="st84" d="M.9.9c0,.1.1.3.1.4,0-.1,0-.3-.1-.4h0Z"/>
      <path class="st112" d="M.9,1c0,0,0,.2,0,.2,0,0,0-.2,0-.2Z"/>
    </g>
    <g>
      <path class="st114" d="M2.1,1.2c0,0,0-.2,0-.3,0,0,0,.2,0,.3Z"/>
      <path class="st37" d="M2.2,1.2s0-.2,0-.2c0,0,0,.2,0,.2Z"/>
      <path class="st48" d="M1.9.9c0,.1.1.3.1.4,0-.1,0-.3-.1-.4h0Z"/>
      <path class="st43" d="M1.9,1c0,0,0,.2,0,.2,0,0,0-.2,0-.2Z"/>
    </g>
    <g>
      <path class="st88" d="M3.1,1.2c0,0,0-.2,0-.3,0,0,0,.2,0,.3Z"/>
      <path class="st5" d="M3.2,1.2s0-.2,0-.2c0,0,0,.2,0,.2Z"/>
      <path class="st52" d="M2.9.9c0,.1.1.3.1.4,0-.1,0-.3-.1-.4h0Z"/>
      <path class="st116" d="M2.9,1c0,0,0,.2,0,.2,0,0,0-.2,0-.2Z"/>
    </g>
    <g>
      <path class="st108" d="M4.1,1.2c0,0,0-.2,0-.3,0,0,0,.2,0,.3Z"/>
      <path class="st60" d="M4.2,1.2s0-.2,0-.2c0,0,0,.2,0,.2Z"/>
      <path class="st13" d="M3.9.9c0,.1.1.3.1.4,0-.1,0-.3-.1-.4h0Z"/>
      <path class="st22" d="M3.9,1c0,0,0,.2,0,.2,0,0,0-.2,0-.2Z"/>
    </g>
  </g>
  <g>
    <g>
      <path class="st65" d="M.6,1.9c0,0,0-.2,0-.3,0,0,0,.2,0,.3Z"/>
      <path class="st97" d="M.6,1.9s0-.2,0-.2c0,0,0,.2,0,.2Z"/>
      <path class="st110" d="M.4,1.6c0,.1.1.3.1.4,0-.1,0-.3-.1-.4h0Z"/>
      <path class="st117" d="M.3,1.7c0,0,0,.2,0,.2,0,0,0-.2,0-.2Z"/>
    </g>
    <g>
      <path class="st85" d="M1.6,1.9c0,0,0-.2,0-.3,0,0,0,.2,0,.3Z"/>
      <path class="st80" d="M1.6,1.9s0-.2,0-.2c0,0,0,.2,0,.2Z"/>
      <path class="st29" d="M1.4,1.6c0,.1.1.3.1.4,0-.1,0-.3-.1-.4h0Z"/>
      <path class="st98" d="M1.3,1.7c0,0,0,.2,0,.2,0,0,0-.2,0-.2Z"/>
    </g>
    <g>
      <path class="st17" d="M2.6,1.9c0,0,0-.2,0-.3,0,0,0,.2,0,.3Z"/>
      <path class="st103" d="M2.6,1.9s0-.2,0-.2c0,0,0,.2,0,.2Z"/>
      <path class="st127" d="M2.4,1.6c0,.1.1.3.1.4,0-.1,0-.3-.1-.4h0Z"/>
      <path class="st92" d="M2.3,1.7c0,0,0,.2,0,.2,0,0,0-.2,0-.2Z"/>
    </g>
    <g>
      <path class="st38" d="M3.6,1.9c0,0,0-.2,0-.3,0,0,0,.2,0,.3Z"/>
      <path class="st75" d="M3.6,1.9s0-.2,0-.2c0,0,0,.2,0,.2Z"/>
      <path class="st77" d="M3.4,1.6c0,.1.1.3.1.4,0-.1,0-.3-.1-.4h0Z"/>
      <path class="st7" d="M3.3,1.7c0,0,0,.2,0,.2,0,0,0-.2,0-.2Z"/>
    </g>
    <g>
      <path class="st78" d="M4.6,1.9c0,0,0-.2,0-.3,0,0,0,.2,0,.3Z"/>
      <path class="st90" d="M4.6,1.9s0-.2,0-.2c0,0,0,.2,0,.2Z"/>
      <path class="st125" d="M4.4,1.6c0,.1.1.3.1.4,0-.1,0-.3-.1-.4h0Z"/>
      <path class="st39" d="M4.3,1.7c0,0,0,.2,0,.2,0,0,0-.2,0-.2Z"/>
    </g>
  </g>
  <g>
    <g>
      <path class="st30" d="M1.1,2.6c0,0,0-.2,0-.3,0,0,0,.2,0,.3Z"/>
      <path class="st74" d="M1.2,2.6s0-.2,0-.2c0,0,0,.2,0,.2Z"/>
      <path class="st67" d="M.9,2.3c0,.1.1.3.1.4,0-.1,0-.3-.1-.4h0Z"/>
      <path class="st23" d="M.9,2.4c0,0,0,.2,0,.2,0,0,0-.2,0-.2Z"/>
    </g>
    <g>
      <path class="st83" d="M2.1,2.6c0,0,0-.2,0-.3,0,0,0,.2,0,.3Z"/>
      <path class="st122" d="M2.2,2.6s0-.2,0-.2c0,0,0,.2,0,.2Z"/>
      <path class="st0" d="M1.9,2.3c0,.1.1.3.1.4,0-.1,0-.3-.1-.4h0Z"/>
      <path class="st91" d="M1.9,2.4c0,0,0,.2,0,.2,0,0,0-.2,0-.2Z"/>
    </g>
    <g>
      <path class="st19" d="M3.1,2.6c0,0,0-.2,0-.3,0,0,0,.2,0,.3Z"/>
      <path class="st76" d="M3.2,2.6s0-.2,0-.2c0,0,0,.2,0,.2Z"/>
      <path class="st32" d="M2.9,2.3c0,.1.1.3.1.4,0-.1,0-.3-.1-.4h0Z"/>
      <path class="st82" d="M2.9,2.4c0,0,0,.2,0,.2,0,0,0-.2,0-.2Z"/>
    </g>
    <g>
      <path class="st6" d="M4.1,2.6c0,0,0-.2,0-.3,0,0,0,.2,0,.3Z"/>
      <path class="st109" d="M4.2,2.6s0-.2,0-.2c0,0,0,.2,0,.2Z"/>
      <path class="st81" d="M3.9,2.3c0,.1.1.3.1.4,0-.1,0-.3-.1-.4h0Z"/>
      <path class="st28" d="M3.9,2.4c0,0,0,.2,0,.2,0,0,0-.2,0-.2Z"/>
    </g>
  </g>
  <g>
    <g>
      <path class="st123" d="M.6,3.3c0,0,0-.2,0-.3,0,0,0,.2,0,.3Z"/>
      <path class="st86" d="M.6,3.3s0-.2,0-.2c0,0,0,.2,0,.2Z"/>
      <path class="st59" d="M.4,3c0,.1.1.3.1.4,0-.1,0-.3-.1-.4h0Z"/>
      <path class="st21" d="M.3,3.1c0,0,0,.2,0,.2,0,0,0-.2,0-.2Z"/>
    </g>
    <g>
      <path class="st89" d="M1.6,3.3c0,0,0-.2,0-.3,0,0,0,.2,0,.3Z"/>
      <path class="st16" d="M1.6,3.3s0-.2,0-.2c0,0,0,.2,0,.2Z"/>
      <path class="st14" d="M1.4,3c0,.1.1.3.1.4,0-.1,0-.3-.1-.4h0Z"/>
      <path class="st87" d="M1.3,3.1c0,0,0,.2,0,.2,0,0,0-.2,0-.2Z"/>
    </g>
    <g>
      <path class="st3" d="M2.6,3.3c0,0,0-.2,0-.3,0,0,0,.2,0,.3Z"/>
      <path class="st11" d="M2.6,3.3s0-.2,0-.2c0,0,0,.2,0,.2Z"/>
      <path class="st54" d="M2.4,3c0,.1.1.3.1.4,0-.1,0-.3-.1-.4h0Z"/>
      <path class="st10" d="M2.3,3.1c0,0,0,.2,0,.2,0,0,0-.2,0-.2Z"/>
    </g>
    <g>
      <path class="st46" d="M3.6,3.3c0,0,0-.2,0-.3,0,0,0,.2,0,.3Z"/>
      <path class="st2" d="M3.6,3.3s0-.2,0-.2c0,0,0,.2,0,.2Z"/>
      <path class="st119" d="M3.4,3c0,.1.1.3.1.4,0-.1,0-.3-.1-.4h0Z"/>
      <path class="st15" d="M3.3,3.1c0,0,0,.2,0,.2,0,0,0-.2,0-.2Z"/>
    </g>
    <g>
      <path class="st120" d="M4.6,3.3c0,0,0-.2,0-.3,0,0,0,.2,0,.3Z"/>
      <path class="st72" d="M4.6,3.3s0-.2,0-.2c0,0,0,.2,0,.2Z"/>
      <path class="st64" d="M4.4,3c0,.1.1.3.1.4,0-.1,0-.3-.1-.4h0Z"/>
      <path class="st25" d="M4.3,3.1c0,0,0,.2,0,.2,0,0,0-.2,0-.2Z"/>
    </g>
  </g>
  <g>
    <g>
      <path class="st62" d="M.6,4.8c0,0,0-.2,0-.3,0,0,0,.2,0,.3Z"/>
      <path class="st107" d="M.6,4.8s0-.2,0-.2c0,0,0,.2,0,.2Z"/>
      <path class="st47" d="M.4,4.4c0,.1.1.3.1.4,0-.1,0-.3-.1-.4h0Z"/>
      <path class="st31" d="M.3,4.5c0,0,0,.2,0,.2,0,0,0-.2,0-.2Z"/>
    </g>
    <g>
      <path class="st113" d="M1.6,4.8c0,0,0-.2,0-.3,0,0,0,.2,0,.3Z"/>
      <path class="st26" d="M1.6,4.8s0-.2,0-.2c0,0,0,.2,0,.2Z"/>
      <path class="st68" d="M1.4,4.4c0,.1.1.3.1.4,0-.1,0-.3-.1-.4h0Z"/>
      <path class="st1" d="M1.3,4.5c0,0,0,.2,0,.2,0,0,0-.2,0-.2Z"/>
    </g>
    <g>
      <path class="st57" d="M2.6,4.8c0,0,0-.2,0-.3,0,0,0,.2,0,.3Z"/>
      <path class="st104" d="M2.6,4.8s0-.2,0-.2c0,0,0,.2,0,.2Z"/>
      <path class="st50" d="M2.4,4.4c0,.1.1.3.1.4,0-.1,0-.3-.1-.4h0Z"/>
      <path class="st8" d="M2.3,4.5c0,0,0,.2,0,.2,0,0,0-.2,0-.2Z"/>
    </g>
    <g>
      <path class="st35" d="M3.6,4.8c0,0,0-.2,0-.3,0,0,0,.2,0,.3Z"/>
      <path class="st40" d="M3.6,4.8s0-.2,0-.2c0,0,0,.2,0,.2Z"/>
      <path class="st24" d="M3.4,4.4c0,.1.1.3.1.4,0-.1,0-.3-.1-.4h0Z"/>
      <path class="st20" d="M3.3,4.5c0,0,0,.2,0,.2,0,0,0-.2,0-.2Z"/>
    </g>
    <g>
      <path class="st53" d="M4.6,4.8c0,0,0-.2,0-.3,0,0,0,.2,0,.3Z"/>
      <path class="st63" d="M4.6,4.8s0-.2,0-.2c0,0,0,.2,0,.2Z"/>
      <path class="st58" d="M4.4,4.4c0,.1.1.3.1.4,0-.1,0-.3-.1-.4h0Z"/>
      <path class="st126" d="M4.3,4.5c0,0,0,.2,0,.2,0,0,0-.2,0-.2Z"/>
    </g>
  </g>
  <g>
    <g>
      <path class="st51" d="M1.1,4.1c0,0,0-.2,0-.3,0,0,0,.2,0,.3Z"/>
      <path class="st106" d="M1.2,4.1s0-.2,0-.2c0,0,0,.2,0,.2Z"/>
      <path class="st115" d="M.9,3.7c0,.1.1.3.1.4,0-.1,0-.3-.1-.4h0Z"/>
      <path class="st56" d="M.9,3.8c0,0,0,.2,0,.2,0,0,0-.2,0-.2Z"/>
    </g>
    <g>
      <path class="st99" d="M2.1,4.1c0,0,0-.2,0-.3,0,0,0,.2,0,.3Z"/>
      <path class="st70" d="M2.2,4.1s0-.2,0-.2c0,0,0,.2,0,.2Z"/>
      <path class="st45" d="M1.9,3.7c0,.1.1.3.1.4,0-.1,0-.3-.1-.4h0Z"/>
      <path class="st105" d="M1.9,3.8c0,0,0,.2,0,.2,0,0,0-.2,0-.2Z"/>
    </g>
    <g>
      <path class="st111" d="M3.1,4.1c0,0,0-.2,0-.3,0,0,0,.2,0,.3Z"/>
      <path class="st121" d="M3.2,4.1s0-.2,0-.2c0,0,0,.2,0,.2Z"/>
      <path class="st94" d="M2.9,3.7c0,.1.1.3.1.4,0-.1,0-.3-.1-.4h0Z"/>
      <path class="st49" d="M2.9,3.8c0,0,0,.2,0,.2,0,0,0-.2,0-.2Z"/>
    </g>
    <g>
      <path class="st61" d="M4.1,4.1c0,0,0-.2,0-.3,0,0,0,.2,0,.3Z"/>
      <path class="st55" d="M4.2,4.1s0-.2,0-.2c0,0,0,.2,0,.2Z"/>
      <path class="st33" d="M3.9,3.7c0,.1.1.3.1.4,0-.1,0-.3-.1-.4h0Z"/>
      <path class="st27" d="M3.9,3.8c0,0,0,.2,0,.2,0,0,0-.2,0-.2Z"/>
    </g>
  </g>
</svg>